<?xml version="1.0" encoding="UTF-8" standalone="no"?>
<!-- Created with Inkscape (http://www.inkscape.org/) -->

<svg
   width="24.256592"
   height="24.256592"
   viewBox="0 0 24.256592 24.256592"
   version="1.1"
   id="svg1"
   xml:space="preserve"
   inkscape:export-filename="ml4w_presentation2.pdf"
   inkscape:export-xdpi="96"
   inkscape:export-ydpi="96"
   inkscape:version="1.4.2 (ebf0e940d0, 2025-05-08)"
   sodipodi:docname="ml4w_logo.svg"
   xmlns:inkscape="http://www.inkscape.org/namespaces/inkscape"
   xmlns:sodipodi="http://sodipodi.sourceforge.net/DTD/sodipodi-0.dtd"
   xmlns="http://www.w3.org/2000/svg"
   xmlns:svg="http://www.w3.org/2000/svg"><sodipodi:namedview
     id="namedview1"
     pagecolor="#505050"
     bordercolor="#eeeeee"
     borderopacity="1"
     inkscape:showpageshadow="0"
     inkscape:pageopacity="0"
     inkscape:pagecheckerboard="0"
     inkscape:deskcolor="#505050"
     inkscape:document-units="px"
     showguides="true"
     inkscape:zoom="0.16"
     inkscape:cx="2037.5"
     inkscape:cy="-968.75"
     inkscape:window-width="1366"
     inkscape:window-height="668"
     inkscape:window-x="0"
     inkscape:window-y="0"
     inkscape:window-maximized="1"
     inkscape:current-layer="layer1"><inkscape:page
       x="0"
       y="0"
       width="24.256592"
       height="24.256592"
       id="page2"
       margin="0"
       bleed="0" /></sodipodi:namedview><defs
     id="defs1" /><g
     inkscape:label="Layer 1"
     inkscape:groupmode="layer"
     id="layer1"
     transform="translate(-2259.6982,2872.4023)"><g
       id="g17"
       transform="matrix(0.05190391,0,0,0.05190391,2110.8906,-2814.8241)"
       inkscape:export-filename="../../Pictures/ml4w-logos/ml4w_logodark.svg"
       inkscape:export-xdpi="96"
       inkscape:export-ydpi="96"><circle
         style="font-variation-settings:'wdth' 87.5, 'wght' 700;fill:#242424;fill-opacity:1;stroke:#19cddb;stroke-width:14.162;stroke-dasharray:none;stroke-opacity:1"
         id="circle16"
         cx="3100.6499"
         cy="-875.65662"
         r="226.58739"
         inkscape:export-filename="/home/ghost/Pictures/ml4wborder.png"
         inkscape:export-xdpi="192"
         inkscape:export-ydpi="192" /><path
         id="path16"
         style="font-style:normal;font-variant:normal;font-weight:bold;font-stretch:normal;font-size:23.3008px;font-family:Consolas;-inkscape-font-specification:'Consolas, Bold';font-variant-ligatures:normal;font-variant-caps:normal;font-variant-numeric:normal;font-variant-east-asian:normal;text-align:center;text-anchor:middle;fill:#19cddb;fill-opacity:1;stroke:none;stroke-width:0;stroke-dasharray:none"
         d="m 3078.9096,-947.1841 c -4.7407,0 -9.0152,0.30757 -12.8341,0.95746 -3.6871,0.64989 -7.1632,1.74348 -10.4553,3.26005 -3.2921,1.44436 -6.3966,3.32007 -9.2936,5.631 -2.8971,2.31094 -5.788,5.09417 -8.6851,8.34394 l -0.8021,-16.02675 h -35.7362 v 28.67944 78.97098 2.39374 h 0.1104 c 0.4842,9.77777 3.8889,17.26647 10.3447,22.41007 6.9792,5.63292 17.7723,8.43511 32.3893,8.43511 4.7407,0 9.1048,-0.30756 13.0553,-0.95745 3.8189,-0.64989 7.4465,-1.7435 10.8702,-3.26007 3.2922,-1.44436 6.4928,-3.32007 9.6533,-5.63101 3.0287,-2.31092 6.1332,-5.09417 9.2936,-8.34393 0.7901,5.70513 4.1422,10.15908 10.0681,13.33663 5.7941,3.24974 14.3089,4.85589 25.5021,4.85589 4.7407,0 9.0152,-0.30756 12.8341,-0.95745 3.6871,-0.64989 7.1632,-1.74352 10.4553,-3.26008 3.2921,-1.44437 6.3966,-3.32008 9.2936,-5.631 2.8971,-2.31094 5.7881,-5.09419 8.6851,-8.34394 l 0.8021,16.02675 h 35.7362 v -28.67948 -78.97096 -2.39375 h -0.111 c -0.4841,-9.77778 -3.8889,-17.26648 -10.3447,-22.41007 -6.9793,-5.63291 -17.7723,-8.43512 -32.3894,-8.43512 -4.7406,0 -9.1047,0.30757 -13.0553,0.95746 -3.8189,0.64989 -7.4464,1.7435 -10.8702,3.26006 -3.2921,1.44437 -6.4928,3.32006 -9.6532,5.631 -3.0287,2.31095 -6.1332,5.09417 -9.2936,8.34394 -0.7897,-5.70514 -4.1418,-10.15908 -10.0676,-13.33661 -5.7941,-3.24976 -14.3089,-4.85591 -25.5021,-4.85591 z m -10.649,20.79142 c 2.6337,0 4.7262,0.34934 6.3064,1.07152 1.5803,0.64989 2.778,1.65996 3.5681,3.03209 0.7901,1.37207 1.3132,3.10357 1.5766,5.19783 0.083,0.64157 0.1373,1.38317 0.1937,2.0974 v 70.03431 c -5.004,7.29391 -9.4644,12.44649 -13.4149,15.4796 -3.9506,3.0331 -7.9774,4.55953 -12.0596,4.55953 -2.6337,0 -4.6642,-0.34934 -6.1128,-1.07152 -1.5802,-0.64989 -2.778,-1.68276 -3.5681,-3.05489 -0.7901,-1.37207 -1.3132,-3.10357 -1.5766,-5.19785 -0.2634,-2.02208 -0.3871,-4.39141 -0.3871,-7.13566 v -64.97323 c 5.1357,-7.2939 9.8095,-12.46928 14.0234,-15.5024 4.2139,-3.0331 8.0272,-4.53673 11.451,-4.53673 z m 78.6086,0 c 2.6337,0 4.6642,0.34934 6.1128,1.07152 1.5802,0.64989 2.7779,1.65996 3.5681,3.03209 0.7901,1.37207 1.3132,3.10357 1.5766,5.19783 0.2634,2.0221 0.3871,4.41425 0.3871,7.15847 v 64.97321 c -5.1357,7.2939 -9.8095,12.44649 -14.0234,15.47959 -4.2139,3.03311 -8.0273,4.55954 -11.4511,4.55954 -2.6337,0 -4.7262,-0.34934 -6.3064,-1.07152 -1.5802,-0.64989 -2.778,-1.68275 -3.568,-3.05487 -0.7901,-1.37208 -1.3133,-3.10357 -1.5767,-5.19787 -0.083,-0.64156 -0.1372,-1.38317 -0.1935,-2.09739 v -70.01147 c 5.004,-7.29393 9.4644,-12.4693 13.4149,-15.5024 3.9506,-3.03312 7.9774,-4.53674 12.0596,-4.53674 z" /><circle
         style="fill:#19cddb;fill-opacity:1;stroke:none;stroke-width:5.66469;stroke-dasharray:none;stroke-opacity:0.929412"
         id="circle17"
         cx="3232.3091"
         cy="-824.02869"
         r="17.423302" /></g></g></svg>
