<?xml version="1.0" encoding="UTF-8" standalone="no"?>
<!-- Created with Inkscape (http://www.inkscape.org/) -->

<svg
   width="63.721191"
   height="63.720947"
   viewBox="0 0 63.721191 63.720947"
   version="1.1"
   id="svg1"
   xml:space="preserve"
   inkscape:export-filename="ml4w_presentation2.pdf"
   inkscape:export-xdpi="96"
   inkscape:export-ydpi="96"
   inkscape:version="1.4.2 (ebf0e940d0, 2025-05-08)"
   sodipodi:docname="ml4w_logo.svg"
   xmlns:inkscape="http://www.inkscape.org/namespaces/inkscape"
   xmlns:sodipodi="http://sodipodi.sourceforge.net/DTD/sodipodi-0.dtd"
   xmlns="http://www.w3.org/2000/svg"
   xmlns:svg="http://www.w3.org/2000/svg"><sodipodi:namedview
     id="namedview1"
     pagecolor="#505050"
     bordercolor="#eeeeee"
     borderopacity="1"
     inkscape:showpageshadow="0"
     inkscape:pageopacity="0"
     inkscape:pagecheckerboard="0"
     inkscape:deskcolor="#505050"
     inkscape:document-units="px"
     showguides="true"
     inkscape:zoom="0.16"
     inkscape:cx="2037.5"
     inkscape:cy="-968.75"
     inkscape:window-width="1366"
     inkscape:window-height="668"
     inkscape:window-x="0"
     inkscape:window-y="0"
     inkscape:window-maximized="1"
     inkscape:current-layer="layer1"><inkscape:page
       x="0"
       y="0"
       width="63.721191"
       height="63.720947"
       id="page2"
       margin="0"
       bleed="0" /></sodipodi:namedview><defs
     id="defs1" /><g
     inkscape:label="Layer 1"
     inkscape:groupmode="layer"
     id="layer1"
     transform="translate(1497.6337,3255.8064)"><g
       id="g15"
       transform="matrix(0.10276847,0,0,0.10276799,-1586.3835,-3293.8109)"
       inkscape:export-filename="../../Pictures/ml4w-logos/ml4w_logo20.svg"
       inkscape:export-xdpi="96"
       inkscape:export-ydpi="96"><circle
         style="font-variation-settings:'wdth' 87.5, 'wght' 700;fill:#f9f9f9;stroke:#19cddb;stroke-width:18.7896;stroke-dasharray:none;stroke-opacity:1"
         id="circle3"
         cx="1173.6134"
         cy="679.83173"
         r="300.62802"
         inkscape:export-filename="/home/ghost/Pictures/ml4wborder.png"
         inkscape:export-xdpi="192"
         inkscape:export-ydpi="192" /><path
         id="path15"
         style="font-style:normal;font-variant:normal;font-weight:bold;font-stretch:normal;font-size:23.3008px;font-family:Consolas;-inkscape-font-specification:'Consolas, Bold';font-variant-ligatures:normal;font-variant-caps:normal;font-variant-numeric:normal;font-variant-east-asian:normal;text-align:center;text-anchor:middle;fill:#19cddb;fill-opacity:1;stroke:none;stroke-width:0;stroke-dasharray:none"
         d="m 1144.7692,584.93165 c -6.2898,0 -11.9611,0.40807 -17.0279,1.27032 -4.8919,0.86225 -9.5038,2.31319 -13.8717,4.32532 -4.3678,1.91632 -8.4868,4.40495 -12.3304,7.47101 -3.8438,3.06607 -7.6793,6.75876 -11.5231,11.07044 l -1.0642,-21.26372 h -47.4135 v 38.05085 104.77587 3.17593 h 0.1465 c 0.6424,12.9728 5.1596,22.90853 13.725,29.73288 9.2597,7.47356 23.5796,11.1914 42.9729,11.1914 6.2898,0 12.08,-0.40806 17.3213,-1.27031 5.0668,-0.86225 9.8798,-2.31321 14.4222,-4.32534 4.368,-1.91633 8.6144,-4.40495 12.8077,-7.47103 4.0184,-3.06604 8.1373,-6.75876 12.3304,-11.07042 1.0483,7.56936 5.4957,13.4787 13.358,17.69456 7.6874,4.31164 18.9845,6.44262 33.8353,6.44262 6.2898,0 11.961,-0.40806 17.0278,-1.27031 4.8919,-0.86225 9.5039,-2.31324 13.8717,-4.32536 4.3678,-1.91634 8.4868,-4.40496 12.3304,-7.47101 3.8438,-3.06607 7.6795,-6.75879 11.5231,-11.07044 l 1.0642,21.26372 h 47.4135 v -38.05091 -104.77584 -3.17594 h -0.1473 c -0.6422,-12.97281 -5.1596,-22.90855 -13.7249,-29.73288 -9.2599,-7.47354 -23.5797,-11.19141 -42.9731,-11.19141 -6.2897,0 -12.0798,0.40807 -17.3213,1.27032 -5.0668,0.86225 -9.8797,2.31321 -14.4222,4.32533 -4.3679,1.91634 -8.6144,4.40494 -12.8075,7.47101 -4.0184,3.06608 -8.1374,6.75876 -12.3305,11.07044 -1.0477,-7.56938 -5.4952,-13.4787 -13.3573,-17.69454 -7.6874,-4.31166 -18.9845,-6.44264 -33.8353,-6.44264 z m -14.1287,27.58531 c 3.4943,0 6.2705,0.46349 8.3671,1.42165 2.0966,0.86225 3.6857,2.20238 4.734,4.02287 1.0483,1.82041 1.7423,4.11771 2.0918,6.89629 0.1101,0.85122 0.1821,1.83515 0.257,2.78276 v 92.91902 c -6.6392,9.67729 -12.5571,16.51355 -17.7985,20.53777 -5.2415,4.02421 -10.5841,6.04943 -16.0002,6.04943 -3.4943,0 -6.1883,-0.4635 -8.1102,-1.42166 -2.0966,-0.86225 -3.6858,-2.23262 -4.7341,-4.05312 -1.0482,-1.82041 -1.7423,-4.1177 -2.0917,-6.89632 -0.3495,-2.68282 -0.5136,-5.82636 -0.5136,-9.46734 v -86.20415 c 6.8138,-9.67729 13.0149,-16.5438 18.6057,-20.56803 5.5909,-4.02421 10.6502,-6.01917 15.1928,-6.01917 z m 104.295,0 c 3.4943,0 6.1883,0.46349 8.1103,1.42165 2.0965,0.86225 3.6856,2.20238 4.734,4.02287 1.0483,1.82041 1.7423,4.11771 2.0918,6.89629 0.3494,2.68285 0.5136,5.85667 0.5136,9.49761 v 86.20413 c -6.8139,9.67728 -13.0149,16.51355 -18.6058,20.53776 -5.5908,4.02422 -10.6503,6.04944 -15.1929,6.04944 -3.4943,0 -6.2705,-0.4635 -8.3671,-1.42166 -2.0965,-0.86225 -3.6857,-2.23261 -4.7339,-4.05309 -1.0483,-1.82043 -1.7424,-4.11771 -2.0919,-6.89635 -0.1101,-0.8512 -0.182,-1.83514 -0.2567,-2.78274 v -92.88871 c 6.6391,-9.67733 12.557,-16.54382 17.7984,-20.56803 5.2415,-4.02424 10.5841,-6.01919 16.0002,-6.01919 z" /><circle
         style="fill:#19cddb;fill-opacity:1;stroke:none;stroke-width:7.51571;stroke-dasharray:none;stroke-opacity:0.929412"
         id="circle15"
         cx="1348.2941"
         cy="748.32983"
         r="23.116613" /></g></g></svg>
